<?xml version="1.0" encoding="UTF-8" standalone="no"?>
<!DOCTYPE svg PUBLIC "-//W3C//DTD SVG 1.1//EN"
 "http://www.w3.org/Graphics/SVG/1.1/DTD/svg11.dtd">
<!-- Generated by graphviz version 2.43.0 (0)
 -->
<!-- Title: %3 Pages: 1 -->
<svg width="1661pt" height="288pt"
 viewBox="0.00 0.00 1661.16 288.00" xmlns="http://www.w3.org/2000/svg" xmlns:xlink="http://www.w3.org/1999/xlink">
<g id="graph0" class="graph" transform="scale(1 1) rotate(0) translate(4 284)">
<title>%3</title>
<polygon fill="white" stroke="transparent" points="-4,4 -4,-284 1657.16,-284 1657.16,4 -4,4"/>
<!-- leaf0 -->
<g id="node1" class="node">
<title>leaf0</title>
<ellipse fill="none" stroke="black" cx="714" cy="-218" rx="77.19" ry="18"/>
<text text-anchor="start" x="662.5" y="-215.3" font-family="Times,serif" font-size="14.00">leaf 0: </text>
<text text-anchor="start" x="711.5" y="-215.3" font-family="Times,serif" font-weight="bold" font-size="14.00">23.721</text>
</g>
<!-- split3 -->
<g id="node2" class="node">
<title>split3</title>
<polygon fill="none" stroke="black" points="586,-196 415,-196 415,-160 586,-160 586,-196"/>
<text text-anchor="start" x="423" y="-175.3" font-family="Times,serif" font-weight="bold" font-size="14.00">Column_12</text>
<text text-anchor="start" x="511" y="-175.3" font-family="Times,serif" font-size="14.00"> ≤</text>
<text text-anchor="start" x="528" y="-175.3" font-family="Times,serif" font-weight="bold" font-size="14.00">&#45;0.940</text>
</g>
<!-- split3&#45;&gt;leaf0 -->
<g id="edge1" class="edge">
<title>split3&#45;&gt;leaf0</title>
<path fill="none" stroke="black" d="M586,-193.98C605.03,-197.58 625.02,-201.36 643.35,-204.83"/>
<polygon fill="black" stroke="black" points="642.88,-208.3 653.36,-206.72 644.18,-201.42 642.88,-208.3"/>
<text text-anchor="middle" x="609.5" y="-204.8" font-family="Times,serif" font-size="14.00">yes</text>
</g>
<!-- split5 -->
<g id="node12" class="node">
<title>split5</title>
<polygon fill="none" stroke="black" points="792,-196 636,-196 636,-160 792,-160 792,-196"/>
<text text-anchor="start" x="644" y="-175.3" font-family="Times,serif" font-weight="bold" font-size="14.00">Column_5</text>
<text text-anchor="start" x="723" y="-175.3" font-family="Times,serif" font-size="14.00"> ≤</text>
<text text-anchor="start" x="740" y="-175.3" font-family="Times,serif" font-weight="bold" font-size="14.00">0.374</text>
</g>
<!-- split3&#45;&gt;split5 -->
<g id="edge12" class="edge">
<title>split3&#45;&gt;split5</title>
<path fill="none" stroke="black" d="M586,-178C598.99,-178 612.41,-178 625.46,-178"/>
<polygon fill="black" stroke="black" points="625.83,-181.5 635.83,-178 625.83,-174.5 625.83,-181.5"/>
<text text-anchor="middle" x="609.5" y="-181.8" font-family="Times,serif" font-size="14.00">no</text>
</g>
<!-- leaf4 -->
<g id="node3" class="node">
<title>leaf4</title>
<ellipse fill="none" stroke="black" cx="1356.58" cy="-262" rx="77.19" ry="18"/>
<text text-anchor="start" x="1305.08" y="-259.3" font-family="Times,serif" font-size="14.00">leaf 4: </text>
<text text-anchor="start" x="1354.08" y="-259.3" font-family="Times,serif" font-weight="bold" font-size="14.00">22.830</text>
</g>
<!-- split9 -->
<g id="node4" class="node">
<title>split9</title>
<polygon fill="none" stroke="black" points="1224.19,-240 1062.19,-240 1062.19,-204 1224.19,-204 1224.19,-240"/>
<text text-anchor="start" x="1070.19" y="-219.3" font-family="Times,serif" font-weight="bold" font-size="14.00">Column_0</text>
<text text-anchor="start" x="1149.19" y="-219.3" font-family="Times,serif" font-size="14.00"> ≤</text>
<text text-anchor="start" x="1166.19" y="-219.3" font-family="Times,serif" font-weight="bold" font-size="14.00">&#45;0.411</text>
</g>
<!-- split9&#45;&gt;leaf4 -->
<g id="edge2" class="edge">
<title>split9&#45;&gt;leaf4</title>
<path fill="none" stroke="black" d="M1224.41,-237.18C1244.79,-241.04 1266.52,-245.15 1286.31,-248.89"/>
<polygon fill="black" stroke="black" points="1285.68,-252.33 1296.15,-250.76 1286.98,-245.46 1285.68,-252.33"/>
<text text-anchor="middle" x="1249.89" y="-246.8" font-family="Times,serif" font-size="14.00">yes</text>
</g>
<!-- leaf10 -->
<g id="node5" class="node">
<title>leaf10</title>
<ellipse fill="none" stroke="black" cx="1356.58" cy="-222" rx="83.39" ry="18"/>
<text text-anchor="start" x="1300.58" y="-219.3" font-family="Times,serif" font-size="14.00">leaf 10: </text>
<text text-anchor="start" x="1358.58" y="-219.3" font-family="Times,serif" font-weight="bold" font-size="14.00">23.201</text>
</g>
<!-- split9&#45;&gt;leaf10 -->
<g id="edge3" class="edge">
<title>split9&#45;&gt;leaf10</title>
<path fill="none" stroke="black" d="M1224.41,-222C1237.04,-222 1250.18,-222 1263.05,-222"/>
<polygon fill="black" stroke="black" points="1263.31,-225.5 1273.31,-222 1263.31,-218.5 1263.31,-225.5"/>
<text text-anchor="middle" x="1249.89" y="-225.8" font-family="Times,serif" font-size="14.00">no</text>
</g>
<!-- split8 -->
<g id="node6" class="node">
<title>split8</title>
<polygon fill="none" stroke="black" points="1013,-236 842,-236 842,-200 1013,-200 1013,-236"/>
<text text-anchor="start" x="850" y="-215.3" font-family="Times,serif" font-weight="bold" font-size="14.00">Column_12</text>
<text text-anchor="start" x="938" y="-215.3" font-family="Times,serif" font-size="14.00"> ≤</text>
<text text-anchor="start" x="955" y="-215.3" font-family="Times,serif" font-weight="bold" font-size="14.00">&#45;0.438</text>
</g>
<!-- split8&#45;&gt;split9 -->
<g id="edge4" class="edge">
<title>split8&#45;&gt;split9</title>
<path fill="none" stroke="black" d="M1013.26,-219.59C1025.95,-219.82 1039.08,-220.07 1051.87,-220.31"/>
<polygon fill="black" stroke="black" points="1051.99,-223.81 1062.05,-220.5 1052.12,-216.81 1051.99,-223.81"/>
<text text-anchor="middle" x="1036.5" y="-223.8" font-family="Times,serif" font-size="14.00">yes</text>
</g>
<!-- split11 -->
<g id="node10" class="node">
<title>split11</title>
<polygon fill="none" stroke="black" points="1221.19,-200 1065.19,-200 1065.19,-164 1221.19,-164 1221.19,-200"/>
<text text-anchor="start" x="1073.19" y="-179.3" font-family="Times,serif" font-weight="bold" font-size="14.00">Column_7</text>
<text text-anchor="start" x="1152.19" y="-179.3" font-family="Times,serif" font-size="14.00"> ≤</text>
<text text-anchor="start" x="1169.19" y="-179.3" font-family="Times,serif" font-weight="bold" font-size="14.00">0.287</text>
</g>
<!-- split8&#45;&gt;split11 -->
<g id="edge9" class="edge">
<title>split8&#45;&gt;split11</title>
<path fill="none" stroke="black" d="M1013.26,-203.72C1027.05,-201.4 1041.34,-198.99 1055.18,-196.66"/>
<polygon fill="black" stroke="black" points="1055.88,-200.09 1065.16,-194.98 1054.72,-193.19 1055.88,-200.09"/>
<text text-anchor="middle" x="1036.5" y="-205.8" font-family="Times,serif" font-size="14.00">no</text>
</g>
<!-- leaf9 -->
<g id="node7" class="node">
<title>leaf9</title>
<ellipse fill="none" stroke="black" cx="1569.96" cy="-202" rx="77.19" ry="18"/>
<text text-anchor="start" x="1518.46" y="-199.3" font-family="Times,serif" font-size="14.00">leaf 9: </text>
<text text-anchor="start" x="1567.46" y="-199.3" font-family="Times,serif" font-weight="bold" font-size="14.00">22.803</text>
</g>
<!-- split12 -->
<g id="node8" class="node">
<title>split12</title>
<polygon fill="none" stroke="black" points="1437.58,-200 1275.58,-200 1275.58,-164 1437.58,-164 1437.58,-200"/>
<text text-anchor="start" x="1283.58" y="-179.3" font-family="Times,serif" font-weight="bold" font-size="14.00">Column_7</text>
<text text-anchor="start" x="1362.58" y="-179.3" font-family="Times,serif" font-size="14.00"> ≤</text>
<text text-anchor="start" x="1379.58" y="-179.3" font-family="Times,serif" font-weight="bold" font-size="14.00">&#45;0.434</text>
</g>
<!-- split12&#45;&gt;leaf9 -->
<g id="edge5" class="edge">
<title>split12&#45;&gt;leaf9</title>
<path fill="none" stroke="black" d="M1437.79,-189.59C1454.24,-191.15 1471.55,-192.78 1488.02,-194.34"/>
<polygon fill="black" stroke="black" points="1487.87,-197.84 1498.15,-195.3 1488.53,-190.87 1487.87,-197.84"/>
<text text-anchor="middle" x="1463.27" y="-196.8" font-family="Times,serif" font-size="14.00">yes</text>
</g>
<!-- leaf13 -->
<g id="node9" class="node">
<title>leaf13</title>
<ellipse fill="none" stroke="black" cx="1569.96" cy="-162" rx="83.39" ry="18"/>
<text text-anchor="start" x="1513.96" y="-159.3" font-family="Times,serif" font-size="14.00">leaf 13: </text>
<text text-anchor="start" x="1571.96" y="-159.3" font-family="Times,serif" font-weight="bold" font-size="14.00">22.930</text>
</g>
<!-- split12&#45;&gt;leaf13 -->
<g id="edge6" class="edge">
<title>split12&#45;&gt;leaf13</title>
<path fill="none" stroke="black" d="M1437.79,-174.41C1452.6,-173.01 1468.11,-171.54 1483.08,-170.13"/>
<polygon fill="black" stroke="black" points="1483.71,-173.58 1493.33,-169.16 1483.05,-166.61 1483.71,-173.58"/>
<text text-anchor="middle" x="1463.27" y="-176.8" font-family="Times,serif" font-size="14.00">no</text>
</g>
<!-- split11&#45;&gt;split12 -->
<g id="edge7" class="edge">
<title>split11&#45;&gt;split12</title>
<path fill="none" stroke="black" d="M1221.4,-182C1235.68,-182 1250.71,-182 1265.33,-182"/>
<polygon fill="black" stroke="black" points="1265.38,-185.5 1275.38,-182 1265.38,-178.5 1265.38,-185.5"/>
<text text-anchor="middle" x="1249.89" y="-185.8" font-family="Times,serif" font-size="14.00">yes</text>
</g>
<!-- leaf12 -->
<g id="node11" class="node">
<title>leaf12</title>
<ellipse fill="none" stroke="black" cx="1356.58" cy="-142" rx="83.39" ry="18"/>
<text text-anchor="start" x="1300.58" y="-139.3" font-family="Times,serif" font-size="14.00">leaf 12: </text>
<text text-anchor="start" x="1358.58" y="-139.3" font-family="Times,serif" font-weight="bold" font-size="14.00">22.711</text>
</g>
<!-- split11&#45;&gt;leaf12 -->
<g id="edge8" class="edge">
<title>split11&#45;&gt;leaf12</title>
<path fill="none" stroke="black" d="M1221.4,-167.39C1241.68,-163.55 1263.48,-159.43 1283.48,-155.64"/>
<polygon fill="black" stroke="black" points="1284.27,-159.06 1293.44,-153.76 1282.97,-152.18 1284.27,-159.06"/>
<text text-anchor="middle" x="1249.89" y="-167.8" font-family="Times,serif" font-size="14.00">no</text>
</g>
<!-- split5&#45;&gt;split8 -->
<g id="edge10" class="edge">
<title>split5&#45;&gt;split8</title>
<path fill="none" stroke="black" d="M792.25,-192.61C805.14,-195.05 818.63,-197.6 831.89,-200.11"/>
<polygon fill="black" stroke="black" points="831.49,-203.59 841.96,-202.01 832.79,-196.71 831.49,-203.59"/>
<text text-anchor="middle" x="818.5" y="-203.8" font-family="Times,serif" font-size="14.00">yes</text>
</g>
<!-- leaf6 -->
<g id="node13" class="node">
<title>leaf6</title>
<ellipse fill="none" stroke="black" cx="927.5" cy="-178" rx="77.19" ry="18"/>
<text text-anchor="start" x="876" y="-175.3" font-family="Times,serif" font-size="14.00">leaf 6: </text>
<text text-anchor="start" x="925" y="-175.3" font-family="Times,serif" font-weight="bold" font-size="14.00">23.310</text>
</g>
<!-- split5&#45;&gt;leaf6 -->
<g id="edge11" class="edge">
<title>split5&#45;&gt;leaf6</title>
<path fill="none" stroke="black" d="M792.25,-178C807.65,-178 823.91,-178 839.6,-178"/>
<polygon fill="black" stroke="black" points="839.81,-181.5 849.81,-178 839.81,-174.5 839.81,-181.5"/>
<text text-anchor="middle" x="818.5" y="-181.8" font-family="Times,serif" font-size="14.00">no</text>
</g>
<!-- split1 -->
<g id="node14" class="node">
<title>split1</title>
<polygon fill="none" stroke="black" points="368,-142 203,-142 203,-106 368,-106 368,-142"/>
<text text-anchor="start" x="211" y="-121.3" font-family="Times,serif" font-weight="bold" font-size="14.00">Column_12</text>
<text text-anchor="start" x="299" y="-121.3" font-family="Times,serif" font-size="14.00"> ≤</text>
<text text-anchor="start" x="316" y="-121.3" font-family="Times,serif" font-weight="bold" font-size="14.00">0.250</text>
</g>
<!-- split1&#45;&gt;split3 -->
<g id="edge13" class="edge">
<title>split1&#45;&gt;split3</title>
<path fill="none" stroke="black" d="M357.72,-142.06C377.26,-147.01 398.59,-152.42 418.62,-157.5"/>
<polygon fill="black" stroke="black" points="417.79,-160.9 428.35,-159.96 419.51,-154.11 417.79,-160.9"/>
<text text-anchor="middle" x="391.5" y="-156.8" font-family="Times,serif" font-size="14.00">yes</text>
</g>
<!-- split4 -->
<g id="node20" class="node">
<title>split4</title>
<polygon fill="none" stroke="black" points="581.5,-142 419.5,-142 419.5,-106 581.5,-106 581.5,-142"/>
<text text-anchor="start" x="427.5" y="-121.3" font-family="Times,serif" font-weight="bold" font-size="14.00">Column_7</text>
<text text-anchor="start" x="506.5" y="-121.3" font-family="Times,serif" font-size="14.00"> ≤</text>
<text text-anchor="start" x="523.5" y="-121.3" font-family="Times,serif" font-weight="bold" font-size="14.00">&#45;0.814</text>
</g>
<!-- split1&#45;&gt;split4 -->
<g id="edge22" class="edge">
<title>split1&#45;&gt;split4</title>
<path fill="none" stroke="black" d="M368.24,-124C381.61,-124 395.53,-124 409.09,-124"/>
<polygon fill="black" stroke="black" points="409.38,-127.5 419.38,-124 409.38,-120.5 409.38,-127.5"/>
<text text-anchor="middle" x="391.5" y="-127.8" font-family="Times,serif" font-size="14.00">no</text>
</g>
<!-- leaf2 -->
<g id="node15" class="node">
<title>leaf2</title>
<ellipse fill="none" stroke="black" cx="927.5" cy="-138" rx="77.19" ry="18"/>
<text text-anchor="start" x="876" y="-135.3" font-family="Times,serif" font-size="14.00">leaf 2: </text>
<text text-anchor="start" x="925" y="-135.3" font-family="Times,serif" font-weight="bold" font-size="14.00">22.218</text>
</g>
<!-- split6 -->
<g id="node16" class="node">
<title>split6</title>
<polygon fill="none" stroke="black" points="792,-142 636,-142 636,-106 792,-106 792,-142"/>
<text text-anchor="start" x="644" y="-121.3" font-family="Times,serif" font-weight="bold" font-size="14.00">Column_0</text>
<text text-anchor="start" x="723" y="-121.3" font-family="Times,serif" font-size="14.00"> ≤</text>
<text text-anchor="start" x="740" y="-121.3" font-family="Times,serif" font-weight="bold" font-size="14.00">0.366</text>
</g>
<!-- split6&#45;&gt;leaf2 -->
<g id="edge14" class="edge">
<title>split6&#45;&gt;leaf2</title>
<path fill="none" stroke="black" d="M792.25,-129.11C808.67,-130.2 826.08,-131.35 842.73,-132.45"/>
<polygon fill="black" stroke="black" points="842.77,-135.97 852.98,-133.13 843.23,-128.98 842.77,-135.97"/>
<text text-anchor="middle" x="818.5" y="-135.8" font-family="Times,serif" font-size="14.00">yes</text>
</g>
<!-- split10 -->
<g id="node18" class="node">
<title>split10</title>
<polygon fill="none" stroke="black" points="1005.5,-116 849.5,-116 849.5,-80 1005.5,-80 1005.5,-116"/>
<text text-anchor="start" x="857.5" y="-95.3" font-family="Times,serif" font-weight="bold" font-size="14.00">Column_0</text>
<text text-anchor="start" x="936.5" y="-95.3" font-family="Times,serif" font-size="14.00"> ≤</text>
<text text-anchor="start" x="953.5" y="-95.3" font-family="Times,serif" font-weight="bold" font-size="14.00">1.053</text>
</g>
<!-- split6&#45;&gt;split10 -->
<g id="edge17" class="edge">
<title>split6&#45;&gt;split10</title>
<path fill="none" stroke="black" d="M792.25,-114.5C807.55,-112.62 823.7,-110.64 839.3,-108.72"/>
<polygon fill="black" stroke="black" points="839.96,-112.17 849.46,-107.47 839.1,-105.22 839.96,-112.17"/>
<text text-anchor="middle" x="818.5" y="-116.8" font-family="Times,serif" font-size="14.00">no</text>
</g>
<!-- leaf7 -->
<g id="node17" class="node">
<title>leaf7</title>
<ellipse fill="none" stroke="black" cx="1143.19" cy="-138" rx="77.19" ry="18"/>
<text text-anchor="start" x="1091.69" y="-135.3" font-family="Times,serif" font-size="14.00">leaf 7: </text>
<text text-anchor="start" x="1140.69" y="-135.3" font-family="Times,serif" font-weight="bold" font-size="14.00">21.876</text>
</g>
<!-- split10&#45;&gt;leaf7 -->
<g id="edge15" class="edge">
<title>split10&#45;&gt;leaf7</title>
<path fill="none" stroke="black" d="M1005.65,-112.44C1027.42,-116.52 1050.99,-120.93 1072.31,-124.92"/>
<polygon fill="black" stroke="black" points="1071.79,-128.38 1082.26,-126.78 1073.07,-121.5 1071.79,-128.38"/>
<text text-anchor="middle" x="1036.5" y="-124.8" font-family="Times,serif" font-size="14.00">yes</text>
</g>
<!-- leaf11 -->
<g id="node19" class="node">
<title>leaf11</title>
<ellipse fill="none" stroke="black" cx="1143.19" cy="-98" rx="83.39" ry="18"/>
<text text-anchor="start" x="1087.19" y="-95.3" font-family="Times,serif" font-size="14.00">leaf 11: </text>
<text text-anchor="start" x="1145.19" y="-95.3" font-family="Times,serif" font-weight="bold" font-size="14.00">21.700</text>
</g>
<!-- split10&#45;&gt;leaf11 -->
<g id="edge16" class="edge">
<title>split10&#45;&gt;leaf11</title>
<path fill="none" stroke="black" d="M1005.65,-98C1019.93,-98 1034.97,-98 1049.65,-98"/>
<polygon fill="black" stroke="black" points="1049.75,-101.5 1059.75,-98 1049.75,-94.5 1049.75,-101.5"/>
<text text-anchor="middle" x="1036.5" y="-101.8" font-family="Times,serif" font-size="14.00">no</text>
</g>
<!-- split4&#45;&gt;split6 -->
<g id="edge18" class="edge">
<title>split4&#45;&gt;split6</title>
<path fill="none" stroke="black" d="M581.76,-124C596.19,-124 611.3,-124 625.91,-124"/>
<polygon fill="black" stroke="black" points="625.94,-127.5 635.94,-124 625.94,-120.5 625.94,-127.5"/>
<text text-anchor="middle" x="609.5" y="-127.8" font-family="Times,serif" font-size="14.00">yes</text>
</g>
<!-- split7 -->
<g id="node22" class="node">
<title>split7</title>
<polygon fill="none" stroke="black" points="795,-76 633,-76 633,-40 795,-40 795,-76"/>
<text text-anchor="start" x="641" y="-55.3" font-family="Times,serif" font-weight="bold" font-size="14.00">Column_0</text>
<text text-anchor="start" x="720" y="-55.3" font-family="Times,serif" font-size="14.00"> ≤</text>
<text text-anchor="start" x="737" y="-55.3" font-family="Times,serif" font-weight="bold" font-size="14.00">&#45;0.344</text>
</g>
<!-- split4&#45;&gt;split7 -->
<g id="edge21" class="edge">
<title>split4&#45;&gt;split7</title>
<path fill="none" stroke="black" d="M572.61,-105.92C577.15,-104.63 581.65,-103.32 586,-102 608.47,-95.2 632.88,-86.94 654.25,-79.44"/>
<polygon fill="black" stroke="black" points="655.58,-82.68 663.84,-76.04 653.24,-76.08 655.58,-82.68"/>
<text text-anchor="middle" x="609.5" y="-101.8" font-family="Times,serif" font-size="14.00">no</text>
</g>
<!-- leaf5 -->
<g id="node21" class="node">
<title>leaf5</title>
<ellipse fill="none" stroke="black" cx="927.5" cy="-58" rx="77.19" ry="18"/>
<text text-anchor="start" x="876" y="-55.3" font-family="Times,serif" font-size="14.00">leaf 5: </text>
<text text-anchor="start" x="925" y="-55.3" font-family="Times,serif" font-weight="bold" font-size="14.00">22.674</text>
</g>
<!-- split7&#45;&gt;leaf5 -->
<g id="edge19" class="edge">
<title>split7&#45;&gt;leaf5</title>
<path fill="none" stroke="black" d="M795.26,-58C809.88,-58 825.2,-58 839.99,-58"/>
<polygon fill="black" stroke="black" points="840.13,-61.5 850.13,-58 840.13,-54.5 840.13,-61.5"/>
<text text-anchor="middle" x="818.5" y="-61.8" font-family="Times,serif" font-size="14.00">yes</text>
</g>
<!-- leaf8 -->
<g id="node23" class="node">
<title>leaf8</title>
<ellipse fill="none" stroke="black" cx="927.5" cy="-18" rx="77.19" ry="18"/>
<text text-anchor="start" x="876" y="-15.3" font-family="Times,serif" font-size="14.00">leaf 8: </text>
<text text-anchor="start" x="925" y="-15.3" font-family="Times,serif" font-weight="bold" font-size="14.00">22.312</text>
</g>
<!-- split7&#45;&gt;leaf8 -->
<g id="edge20" class="edge">
<title>split7&#45;&gt;leaf8</title>
<path fill="none" stroke="black" d="M795.26,-42.82C815.65,-38.96 837.39,-34.85 857.19,-31.11"/>
<polygon fill="black" stroke="black" points="857.87,-34.54 867.04,-29.24 856.57,-27.66 857.87,-34.54"/>
<text text-anchor="middle" x="818.5" y="-44.8" font-family="Times,serif" font-size="14.00">no</text>
</g>
<!-- split0 -->
<g id="node24" class="node">
<title>split0</title>
<polygon fill="none" stroke="black" points="156,-122 0,-122 0,-86 156,-86 156,-122"/>
<text text-anchor="start" x="8" y="-101.3" font-family="Times,serif" font-weight="bold" font-size="14.00">Column_5</text>
<text text-anchor="start" x="87" y="-101.3" font-family="Times,serif" font-size="14.00"> ≤</text>
<text text-anchor="start" x="104" y="-101.3" font-family="Times,serif" font-weight="bold" font-size="14.00">0.935</text>
</g>
<!-- split0&#45;&gt;split1 -->
<g id="edge23" class="edge">
<title>split0&#45;&gt;split1</title>
<path fill="none" stroke="black" d="M156.11,-111.5C168.03,-112.66 180.44,-113.87 192.65,-115.06"/>
<polygon fill="black" stroke="black" points="192.55,-118.57 202.84,-116.05 193.23,-111.6 192.55,-118.57"/>
<text text-anchor="middle" x="179.5" y="-118.8" font-family="Times,serif" font-size="14.00">yes</text>
</g>
<!-- split2 -->
<g id="node26" class="node">
<title>split2</title>
<polygon fill="none" stroke="black" points="363.5,-102 207.5,-102 207.5,-66 363.5,-66 363.5,-102"/>
<text text-anchor="start" x="215.5" y="-81.3" font-family="Times,serif" font-weight="bold" font-size="14.00">Column_5</text>
<text text-anchor="start" x="294.5" y="-81.3" font-family="Times,serif" font-size="14.00"> ≤</text>
<text text-anchor="start" x="311.5" y="-81.3" font-family="Times,serif" font-weight="bold" font-size="14.00">1.642</text>
</g>
<!-- split0&#45;&gt;split2 -->
<g id="edge26" class="edge">
<title>split0&#45;&gt;split2</title>
<path fill="none" stroke="black" d="M156.11,-96.5C169.45,-95.2 183.4,-93.84 197,-92.52"/>
<polygon fill="black" stroke="black" points="197.69,-95.97 207.3,-91.51 197.01,-89 197.69,-95.97"/>
<text text-anchor="middle" x="179.5" y="-99.8" font-family="Times,serif" font-size="14.00">no</text>
</g>
<!-- leaf1 -->
<g id="node25" class="node">
<title>leaf1</title>
<ellipse fill="none" stroke="black" cx="500.5" cy="-84" rx="77.19" ry="18"/>
<text text-anchor="start" x="449" y="-81.3" font-family="Times,serif" font-size="14.00">leaf 1: </text>
<text text-anchor="start" x="498" y="-81.3" font-family="Times,serif" font-weight="bold" font-size="14.00">23.938</text>
</g>
<!-- split2&#45;&gt;leaf1 -->
<g id="edge24" class="edge">
<title>split2&#45;&gt;leaf1</title>
<path fill="none" stroke="black" d="M363.7,-84C379.67,-84 396.6,-84 412.88,-84"/>
<polygon fill="black" stroke="black" points="412.92,-87.5 422.92,-84 412.92,-80.5 412.92,-87.5"/>
<text text-anchor="middle" x="391.5" y="-87.8" font-family="Times,serif" font-size="14.00">yes</text>
</g>
<!-- leaf3 -->
<g id="node27" class="node">
<title>leaf3</title>
<ellipse fill="none" stroke="black" cx="500.5" cy="-44" rx="77.19" ry="18"/>
<text text-anchor="start" x="449" y="-41.3" font-family="Times,serif" font-size="14.00">leaf 3: </text>
<text text-anchor="start" x="498" y="-41.3" font-family="Times,serif" font-weight="bold" font-size="14.00">25.174</text>
</g>
<!-- split2&#45;&gt;leaf3 -->
<g id="edge25" class="edge">
<title>split2&#45;&gt;leaf3</title>
<path fill="none" stroke="black" d="M363.7,-69.5C385.28,-65.45 408.61,-61.07 429.73,-57.1"/>
<polygon fill="black" stroke="black" points="430.41,-60.54 439.59,-55.25 429.12,-53.66 430.41,-60.54"/>
<text text-anchor="middle" x="391.5" y="-70.8" font-family="Times,serif" font-size="14.00">no</text>
</g>
</g>
</svg>
